<?xml version="1.0" encoding="UTF-8" standalone="no"?> <svg width="28" height="28" viewBox="0 0 135.46666 135.46667" version="1.1" id="svg1" xml:space="preserve" xmlns="http://www.w3.org/2000/svg" xmlns:svg="http://www.w3.org/2000/svg"><defs id="defs1" /><g id="layer1"><path d="M 65.403517,135.42698 C 15.384192,133.89883 -15.752258,79.317296 8.2660087,35.266134 c 25.6378003,-47.021513 93.2645313,-47.021513 118.9023213,0 23.29024,42.715891 -4.94989,95.480376 -53.494239,99.949846 -1.234783,0.11368 -2.058421,0.15171 -5.302099,0.2448 -0.528222,0.0152 -1.86403,-4e-5 -2.968475,-0.0337 z M 32.646904,116.95846 c 0.124385,-0.0816 0.469671,-0.64122 0.835705,-1.35443 0.738933,-1.43977 0.954971,-1.74013 2.52939,-3.51652 0.66058,-0.74532 1.672811,-1.98461 2.249398,-2.75397 1.53863,-2.05307 6.244409,-8.46923 9.283857,-12.658195 3.545421,-4.886304 3.927944,-5.320876 5.129506,-5.827395 1.407022,-0.593134 2.308101,-1.552862 2.734053,-2.912022 0.109318,-0.348819 0.300907,-0.747222 0.425768,-0.885363 0.354571,-0.392255 5.707408,-4.652531 6.970011,-5.547363 0.722885,-0.512321 5.364679,-2.45158 5.207361,-2.175535 -0.03307,0.05804 -0.657771,1.069442 -1.388205,2.247534 -4.468297,7.206847 -5.269235,9.77865 -3.628218,11.650248 0.964796,1.100353 2.02541,1.073727 4.372415,-0.109777 1.508442,-0.760649 2.024782,-0.936132 10.52057,-3.575513 6.455734,-2.00561 6.198445,-1.974581 6.59285,-0.795016 0.555102,1.66024 1.084732,2.032263 3.100622,2.177973 1.0669,0.07714 1.283629,0.157791 2.060174,0.766791 1.389327,1.089563 2.783082,0.90523 2.783082,-0.368076 0,-0.515934 -0.477033,-1.330471 -2.969806,-5.071003 -1.754303,-2.632412 -1.986566,-2.862428 -3.266734,-3.235098 -1.111467,-0.323548 -1.706403,-0.204337 -6.772297,1.357049 -4.956494,1.527684 -11.168775,3.409807 -11.254647,3.409807 -0.212268,0 2.675713,-4.11392 4.44267,-6.32857 2.6323,-3.299228 3.471517,-3.821546 7.379479,-4.592893 4.846105,-0.956516 9.197198,-2.181201 11.131717,-3.133215 2.828244,-1.391826 4.581003,-5.120478 4.797895,-10.206552 0.09098,-2.133636 0.238685,-2.42479 1.650554,-3.253564 7.236036,-4.247558 11.043616,-9.494306 11.248156,-15.499701 0.15353,-4.50774 -1.18294,-7.0003 -5.75352,-10.730562 -3.559668,-2.9052 -4.274877,-3.957186 -3.641516,-5.356152 0.550869,-1.216762 1.565386,-1.490024 5.667666,-1.526574 2.41085,-0.02147 2.70175,-0.0594 3.24004,-0.422692 0.50242,-0.339039 0.41186,-0.826494 -0.24721,-1.330405 -0.42835,-0.327535 -0.72888,-0.448779 -1.94515,-0.784779 -1.22389,-0.338098 -1.92287,-0.718855 -3.05576,-1.66454 -4.476319,-3.736625 -8.67093,-2.062594 -8.878384,3.543295 -0.13736,3.711523 1.342049,6.247146 5.866254,10.054502 4.42913,3.727342 5.32658,5.398934 4.71687,8.785808 -1.09548,6.085318 -5.758158,7.861912 -13.53493,5.157137 -1.008403,-0.350738 -2.697801,-0.950759 -3.754236,-1.333389 -5.937423,-2.15051 -7.14699,-2.428311 -10.52057,-2.416258 -6.722908,0.02411 -12.293778,1.604823 -19.675358,5.58314 -2.274822,1.226013 -3.020988,1.565889 -4.305055,1.960891 -2.219648,0.682809 -4.234438,1.021967 -7.581308,1.276171 -8.56298,0.650389 -10.381274,0.933448 -12.92153,2.011477 -2.958806,1.255668 -5.089796,3.837784 -5.73709,6.951615 -0.674368,3.244049 0.300581,4.525405 5.729504,7.530231 2.156596,1.193638 2.789758,1.150466 5.115083,-0.348818 3.641357,-2.347806 7.739913,-2.793712 10.247481,-1.114861 2.106319,1.410191 4.105416,2.219434 8.906766,3.605455 3.990808,1.15204 4.057437,1.287134 1.743263,3.534641 -2.669887,2.592986 -6.567477,5.850926 -7.61972,6.369205 -1.727414,0.85085 -2.589756,1.926514 -3.118881,3.890407 -0.329107,1.221519 -0.36549,1.280957 -3.764811,6.150415 -1.77052,2.536233 -3.89279,5.580466 -4.716161,6.764959 -2.052737,2.95307 -2.299636,3.15071 -4.39592,3.51891 -2.66986,0.46894 -3.173481,1.16444 -2.653899,3.66507 0.265424,1.27739 0.227605,1.53927 -0.425103,2.94372 -1.660783,3.57354 -1.137984,7.22531 0.847859,5.92235 z" id="path1" /></g></svg>